<svg width="194" height="44" viewBox="0 0 194 44" fill="none" xmlns="http://www.w3.org/2000/svg">
<path d="M14.2893 29.1838C20.7911 29.1838 23.3273 25.2135 23.3273 18.4205C23.3273 11.629 20.3613 6.89353 14.4797 6.89353H7.88789V29.1838H14.2893ZM0.953125 0.963151H15.3408C24.4734 0.963151 30.355 8.32921 30.355 18.4205C30.355 23.9683 28.4895 28.8486 24.9033 31.8617C22.3686 33.965 19.0688 35.1615 14.7663 35.1615H0.953125V0.963151ZM50.161 22.9182C50.161 18.1339 47.9144 14.8814 43.9456 14.8814C39.928 14.8814 37.7272 18.1339 37.7272 22.9182C37.7272 27.7008 39.928 30.9045 43.9456 30.9045C47.9144 30.9045 50.161 27.7008 50.161 22.9182ZM31.1293 22.9182C31.1293 15.5993 36.3418 9.95544 43.9456 9.95544C51.548 9.95544 56.7605 15.5993 56.7605 22.9182C56.7605 30.2339 51.548 35.8793 43.9456 35.8793C36.3402 35.8793 31.1277 30.2355 31.1277 22.9182M57.835 22.9182C57.835 15.5993 62.6176 9.95544 70.0767 9.95544C76.4384 9.95544 80.3585 13.6393 81.2196 18.9478H74.8594C74.4296 16.7957 72.7561 15.168 70.3648 15.168C66.4432 15.168 64.4359 18.1827 64.4359 22.9182C64.4359 27.5576 66.2999 30.6668 70.2687 30.6668C72.8993 30.6668 74.7649 29.2799 75.1947 26.506H81.4589C81.0291 31.7185 76.9628 35.8793 70.4121 35.8793C62.6665 35.8793 57.835 30.2355 57.835 22.9182ZM98.3919 35.1629V32.293H98.2486C96.5751 34.5411 94.6624 35.8321 91.2194 35.8321C85.7676 35.8321 82.7071 32.3419 82.7071 26.983V10.6246H89.1618V25.8826C89.1618 28.7525 90.4543 30.3315 93.2266 30.3315C96.2871 30.3315 98.1526 28.0362 98.1526 24.7837V10.6246H104.656V35.1629H98.3919ZM136.341 35.1629H142.843V10.6246H136.341V35.1629ZM136.341 7.19525H142.843V1.11401H136.341V7.19525ZM162.708 21.8162C162.708 18.2299 160.795 15.1695 156.874 15.1695C153.574 15.1695 151.375 17.7513 151.375 21.8649C151.375 26.0258 153.574 28.466 156.923 28.466C161.035 28.466 162.708 25.4527 162.708 21.8177M145.541 35.8793H151.994C152.521 37.4096 153.907 38.6059 156.92 38.6059C160.602 38.6059 162.372 36.8365 162.372 33.488V30.8086H162.228C160.792 32.4348 158.929 33.6785 155.819 33.6785C150.369 33.6785 145.013 29.3744 145.013 21.961C145.013 14.6421 149.412 9.95544 155.629 9.95544C158.689 9.95544 160.936 11.1504 162.419 13.208H162.515V10.6246H168.779V33.296C168.779 36.7404 167.678 39.083 165.862 40.7581C163.804 42.6708 160.649 43.5319 157.016 43.5319C150.321 43.5319 146.208 40.662 145.539 35.8793M177.93 13.9731H178.073C179.747 11.3425 181.995 9.95544 185.342 9.95544C190.411 9.95544 193.805 13.781 193.805 19.1383V35.1615H187.302V20.0955C187.302 17.4648 185.771 15.5993 183.046 15.5993C180.177 15.5993 178.073 17.8946 178.073 21.2431V35.1615H171.569V10.6246H177.93V13.9731ZM121.521 14.5462C116.451 13.4487 114.06 12.6349 114.06 9.85949C114.06 7.42087 116.498 5.84184 120.229 5.84184C123.633 5.84184 126.235 7.43917 126.768 10.6246H133.437C132.76 3.98392 127.832 0.341309 120.276 0.341309C112.675 0.341309 107.174 3.83307 107.174 10.5773C107.174 17.7041 112.769 19.3304 118.89 20.7173C124.102 21.9138 127.355 22.5828 127.355 25.9298C127.355 29.0879 124.246 30.3315 120.708 30.3315C115.831 30.3315 113.487 28.7052 113.008 24.5916H106.218C106.458 31.8144 111.718 35.9266 120.994 35.9266C128.694 35.9266 134.288 32.0537 134.288 25.1175C134.288 17.7513 128.55 16.0779 121.521 14.5462Z" fill="#050038"/>
</svg>
